<?xml version="1.0" encoding="UTF-8"?>
<svg version="1.1" xmlns="http://www.w3.org/2000/svg" width="461" height="306">
<path d="M0 0 C15.41075305 13.00831626 21.91295268 31.1327656 24 50.625 C25.42624838 70.83932798 18.378493 89.3471968 5.6875 104.875 C-4.58164422 116.08395429 -19.35642286 122.96387232 -34.42578125 123.98046875 C-47.40331603 124.52191997 -57.87559346 121.83034629 -69.73193359 116.53222656 C-70.53376068 116.17437073 -71.33558777 115.81651489 -72.16171265 115.44781494 C-72.76834747 115.17628601 -73.3749823 114.90475708 -74 114.625 C-73.99333817 115.25282883 -73.98667633 115.88065765 -73.97981262 116.5275116 C-73.91341618 123.06491981 -73.86818137 129.60223214 -73.83520508 136.13989258 C-73.82012346 138.57938528 -73.79965531 141.0188509 -73.77368164 143.45825195 C-73.73727188 146.96572559 -73.72026711 150.47284054 -73.70703125 153.98046875 C-73.69154739 155.07022507 -73.67606354 156.15998138 -73.66011047 157.28276062 C-73.65802998 166.65426408 -73.65802998 166.65426408 -77 170.625 C-79.16344945 172.78844945 -84.17359705 171.81399476 -87.1796875 171.828125 C-88.10339142 171.83382507 -89.02709534 171.83952515 -89.97879028 171.84539795 C-91.93750863 171.85486345 -93.89624302 171.86138806 -95.85498047 171.86523438 C-98.85542548 171.8749367 -101.8551848 171.90594401 -104.85546875 171.9375 C-106.75520425 171.94403002 -108.65494467 171.9492805 -110.5546875 171.953125 C-111.45476532 171.9654718 -112.35484314 171.9778186 -113.28219604 171.99053955 C-114.11961334 171.98753845 -114.95703064 171.98453735 -115.81982422 171.98144531 C-116.55627167 171.98509094 -117.29271912 171.98873657 -118.05148315 171.99249268 C-120.70157584 171.49268193 -121.40168713 170.80644682 -123 168.625 C-123.37752342 165.53119659 -123.37752342 165.53119659 -123.38095093 161.64074707 C-123.38797089 160.56814471 -123.38797089 160.56814471 -123.39513266 159.47387362 C-123.40712351 157.07158789 -123.39760981 154.66986834 -123.38818359 152.26757812 C-123.39224749 150.54788377 -123.39758834 148.82819203 -123.40411377 147.10850525 C-123.41781486 142.43294588 -123.41247723 137.75758464 -123.40297651 133.08202171 C-123.39539436 128.19469026 -123.4024215 123.30737605 -123.40713501 118.42004395 C-123.41259678 110.21180162 -123.4053899 102.00364021 -123.39111328 93.79541016 C-123.37478596 84.29832681 -123.38007417 74.80143667 -123.3965925 65.30435801 C-123.41019537 57.15822903 -123.4121329 49.0121583 -123.40427649 40.86602163 C-123.39959337 35.99724249 -123.39899263 31.12855423 -123.40888596 26.25978088 C-123.41753592 21.68299351 -123.4115699 17.10645583 -123.39420319 12.52969551 C-123.39022778 10.84744749 -123.39139033 9.16517854 -123.39799118 7.48293877 C-123.40615544 5.19142402 -123.39594807 2.90071589 -123.38095093 0.60925293 C-123.37981985 -0.67459541 -123.37868877 -1.95844376 -123.37752342 -3.28119659 C-123 -6.375 -123 -6.375 -121.59713173 -8.28770638 C-119.55925501 -9.6750499 -118.30837671 -9.75515545 -115.8515625 -9.76318359 C-115.02060059 -9.77264008 -114.18963867 -9.78209656 -113.33349609 -9.7918396 C-112.43969238 -9.78576691 -111.54588867 -9.77969421 -110.625 -9.7734375 C-109.70412598 -9.77630768 -108.78325195 -9.77917786 -107.83447266 -9.78213501 C-105.88768906 -9.78417631 -103.94088498 -9.77864183 -101.99414062 -9.76611328 C-99.01125301 -9.75006056 -96.02972039 -9.76595972 -93.046875 -9.78515625 C-91.156247 -9.78317383 -89.26561985 -9.77933018 -87.375 -9.7734375 C-86.48119629 -9.77951019 -85.58739258 -9.78558289 -84.66650391 -9.7918396 C-83.42006104 -9.77765488 -83.42006104 -9.77765488 -82.1484375 -9.76318359 C-81.05281494 -9.75960342 -81.05281494 -9.75960342 -79.93505859 -9.75595093 C-77.43520973 -9.26381092 -76.55864431 -8.35525996 -75 -6.375 C-73.70769231 -1.95961538 -73.70769231 -1.95961538 -75 0.625 C-74.41734375 0.17769531 -73.8346875 -0.26960938 -73.234375 -0.73046875 C-49.88919852 -17.94570109 -23.14761199 -16.83099249 0 0 Z M-66.4296875 32.81640625 C-73.88981854 41.40854723 -74.71911317 50.61603113 -74 61.625 C-72.79758162 67.93059562 -70.07408988 72.71519938 -66 77.625 C-65.34 77.625 -64.68 77.625 -64 77.625 C-64 78.285 -64 78.945 -64 79.625 C-57.13631855 83.93162365 -51.03970262 84.77209149 -43 83.625 C-36.47116599 81.2257862 -31.03171049 75.79159378 -28 69.57421875 C-24.10377808 59.62761376 -24.27107095 50.64385843 -28 40.625 C-31.19164193 34.18205928 -35.216322 29.32401221 -42 26.625 C-51.21422212 24.24329477 -59.47448635 26.3302768 -66.4296875 32.81640625 Z " fill="#3BB7FF" transform="translate(430,106.375)"/>
<path d="M0 0 C1.86108398 -0.00483398 1.86108398 -0.00483398 3.75976562 -0.00976562 C12.80045902 0.04288002 21.28870758 0.82521303 29.75 4.1875 C30.55308594 4.49429687 31.35617188 4.80109375 32.18359375 5.1171875 C34.82723488 6.60150711 35.91996281 7.59953111 37.3125 10.3125 C37.44939142 13.01461763 37.41713211 15.39069125 37.1875 18.0625 C37.13255371 18.80387207 37.07760742 19.54524414 37.02099609 20.30908203 C35.35416577 40.25618821 35.35416577 40.25618821 32.0234375 45.2421875 C29.69154094 46.70095384 28.0445994 46.64381248 25.3125 46.5625 C24.44625 46.54703125 23.58 46.5315625 22.6875 46.515625 C20.3125 46.3125 20.3125 46.3125 17.3125 45.3125 C4.11548301 44.29941787 4.11548301 44.29941787 -7.6875 49.3125 C-11.60610318 53.02486091 -13.02581901 57.06258368 -13.6875 62.3125 C-13.70773932 63.69477127 -13.71271223 65.07731339 -13.70605469 66.4597168 C-13.69993164 67.73113525 -13.69380859 69.00255371 -13.6875 70.3125 C-12.49672852 70.3218457 -11.30595703 70.33119141 -10.07910156 70.34082031 C-5.65814908 70.38071387 -1.23789297 70.44647073 3.18261719 70.52001953 C5.09528656 70.54823286 7.0080726 70.56944561 8.92089844 70.58349609 C11.67183173 70.60492081 14.42136175 70.6515674 17.171875 70.703125 C18.45333405 70.70496796 18.45333405 70.70496796 19.76068115 70.70684814 C23.43163435 70.79727117 25.68813478 70.92542479 28.85058594 72.88598633 C30.81849624 76.1523625 30.88753247 79.03936878 30.84375 82.74609375 C30.84949036 83.81852074 30.84949036 83.81852074 30.85534668 84.91261292 C30.85806259 86.42132987 30.85072364 87.93009417 30.83398438 89.4387207 C30.81259741 91.73952095 30.83377608 94.03718813 30.859375 96.33789062 C30.85673105 97.80729852 30.85160466 99.27670447 30.84375 100.74609375 C30.85184692 101.42957382 30.85994385 102.11305389 30.86828613 102.81724548 C30.77595717 107.5579174 29.70917626 110.01783181 26.3125 113.3125 C22.4909462 114.58635127 18.9056553 114.43603188 14.92578125 114.41015625 C14.10877243 114.4087413 13.29176361 114.40732635 12.44999695 114.40586853 C9.84162732 114.40027294 7.23334366 114.38772129 4.625 114.375 C2.85612103 114.36998443 1.08724072 114.36542162 -0.68164062 114.36132812 C-5.01696019 114.35030496 -9.35221552 114.33304338 -13.6875 114.3125 C-13.69114563 115.34344788 -13.69479126 116.37439575 -13.69854736 117.43658447 C-13.73547467 127.14818281 -13.79322239 136.8594634 -13.87140274 146.57081985 C-13.91092671 151.5636655 -13.94309101 156.55633347 -13.95849609 161.54931641 C-13.97363033 166.36707423 -14.00801812 171.18434376 -14.05580902 176.00188446 C-14.07065626 177.84065255 -14.07854293 179.67949034 -14.07938385 181.51831818 C-14.08174526 184.09249546 -14.10875673 186.66531421 -14.14160156 189.23925781 C-14.13405602 190.3818531 -14.13405602 190.3818531 -14.12635803 191.54753113 C-14.19399222 194.96926272 -14.44365306 196.97276827 -16.4619751 199.784729 C-18.86569397 201.43482601 -19.96640266 201.81714286 -22.84179688 201.83007812 C-23.64943481 201.84268677 -24.45707275 201.85529541 -25.28918457 201.86828613 C-26.58463196 201.85614075 -26.58463196 201.85614075 -27.90625 201.84375 C-28.80114136 201.8475769 -29.69603271 201.85140381 -30.61804199 201.85534668 C-32.50757982 201.8580652 -34.39715532 201.85070816 -36.28662109 201.83398438 C-39.1776119 201.81257323 -42.06611767 201.83378734 -44.95703125 201.859375 C-46.79427631 201.85673171 -48.63151983 201.85160671 -50.46875 201.84375 C-51.76419739 201.85589539 -51.76419739 201.85589539 -53.08581543 201.86828613 C-53.89345337 201.85567749 -54.70109131 201.84306885 -55.53320312 201.83007812 C-56.24061646 201.82689575 -56.94802979 201.82371338 -57.67687988 201.82043457 C-60.75329953 201.04325151 -61.84673245 199.89137856 -63.6875 197.3125 C-64.06157324 194.458465 -64.19474398 191.99683237 -64.14160156 189.14746094 C-64.14218567 188.3275769 -64.14276978 187.50769287 -64.14337158 186.66296387 C-64.1405883 183.95716789 -64.10948549 181.25247815 -64.078125 178.546875 C-64.07066346 176.6692973 -64.06497012 174.79171181 -64.06097412 172.91412354 C-64.04571091 167.97540742 -64.00642313 163.0371628 -63.9621582 158.09863281 C-63.92122035 153.05800759 -63.90296628 148.01730609 -63.8828125 142.9765625 C-63.83992959 133.08833465 -63.77166988 123.20045655 -63.6875 113.3125 C-64.6775 113.8075 -64.6775 113.8075 -65.6875 114.3125 C-68.30434643 114.43738834 -70.88298918 114.49766963 -73.5 114.5 C-74.21220703 114.51224609 -74.92441406 114.52449219 -75.65820312 114.53710938 C-79.77190162 114.54852574 -83.08125384 114.36488785 -86.6875 112.3125 C-89.60471381 109.39617033 -90.0448415 107.00429286 -90.1043396 102.93054199 C-90.09826691 102.24190063 -90.09219421 101.55325928 -90.0859375 100.84375 C-90.08880768 100.126427 -90.09167786 99.409104 -90.09463501 98.67004395 C-90.09667169 97.15713713 -90.09116944 95.64420374 -90.07861328 94.13134766 C-90.06255237 91.82003716 -90.07847366 89.51047508 -90.09765625 87.19921875 C-90.09567375 85.72655865 -90.09182992 84.25389964 -90.0859375 82.78125 C-90.09201019 82.09260864 -90.09808289 81.40396729 -90.1043396 80.69445801 C-90.06115968 77.73799017 -89.79911928 75.54117894 -88.49536133 72.87011719 C-86.03865477 70.75346792 -84.57771542 70.85083778 -81.36328125 70.921875 C-79.82124023 70.94121094 -79.82124023 70.94121094 -78.24804688 70.9609375 C-77.17619141 70.99445313 -76.10433594 71.02796875 -75 71.0625 C-73.91654297 71.08054687 -72.83308594 71.09859375 -71.71679688 71.1171875 C-69.03947854 71.16436492 -66.36393091 71.23017751 -63.6875 71.3125 C-63.72230469 70.343125 -63.75710937 69.37375 -63.79296875 68.375 C-64.24008605 50.25990587 -61.36161033 32.75469835 -49.6875 18.3125 C-48.82705078 17.24515625 -48.82705078 17.24515625 -47.94921875 16.15625 C-35.68116712 2.49589272 -17.40791639 -0.22821075 0 0 Z " fill="#CD0505" transform="translate(100.6875,25.6875)"/>
<path d="M0 0 C1.05574219 0.05671875 2.11148438 0.1134375 3.19921875 0.171875 C16.81429246 1.47594135 29.96060439 7.72023146 40 17 C40.68191406 17.60328125 41.36382812 18.2065625 42.06640625 18.828125 C50.80089492 26.98252429 58.46134123 38.71358158 60.44140625 50.6640625 C60 53 60 53 57.97045898 54.62109375 C54.27350189 56.33724512 51.02547073 56.43193562 47.03125 56.3984375 C46.27332153 56.40130768 45.51539307 56.40417786 44.73449707 56.40713501 C43.1376063 56.40916966 41.54069026 56.40368177 39.94384766 56.39111328 C37.50756803 56.3750499 35.07294713 56.39098109 32.63671875 56.41015625 C31.08072553 56.40817371 29.52473333 56.40432981 27.96875 56.3984375 C27.24465942 56.40451019 26.52056885 56.41058289 25.77453613 56.4168396 C21.33275105 56.35544961 18.53281526 55.72007558 15 53 C14.195625 52.030625 13.39125 51.06125 12.5625 50.0625 C8.44563908 45.14234914 5.04938998 42.89694481 -1.3125 42.125 C-9.53970554 41.69022898 -15.73984183 42.94305451 -22.20703125 48.22265625 C-28.10617319 54.07038954 -30.10769362 60.1180241 -30.25 68.3125 C-30.16805209 75.93365605 -27.8688272 82.0784534 -23 88 C-16.93578526 92.77987231 -10.73856582 95.36055694 -2.9375 94.8125 C1.31164648 94.23016215 4.39891181 93.45180473 8 91 C8.51377197 90.29383545 9.02754395 89.5876709 9.55688477 88.86010742 C12.20483644 85.42864471 14.6920949 82.55685726 19.05581665 81.50396729 C24.98421203 80.80018873 30.92399231 81.08904106 36.875 81.3125 C38.68744324 81.34053583 40.49995146 81.36465889 42.3125 81.38476562 C55.43132619 81.62088413 55.43132619 81.62088413 59 84 C60.74400628 93.19566946 55.84952227 101.44897756 51 109 C41.30491648 122.37138235 28.56322987 130.22303171 13 135 C12.36247803 135.19577637 11.72495605 135.39155273 11.06811523 135.59326172 C-7.15175425 140.68474214 -26.11947832 135.98055041 -42.3359375 127.19921875 C-47.58802346 124.17124418 -51.81542575 120.36045828 -56 116 C-56.76699219 115.26394531 -57.53398437 114.52789062 -58.32421875 113.76953125 C-70.49243725 101.43603984 -76.14881666 85.17909121 -76.4375 68.0625 C-76.31371214 51.41913512 -69.93606895 35.23540957 -58.31640625 23.2421875 C-57.55199219 22.50226563 -56.78757813 21.76234375 -56 21 C-55.26652344 20.28070313 -54.53304687 19.56140625 -53.77734375 18.8203125 C-39.01516023 5.02144607 -20.09027813 -1.20926435 0 0 Z " fill="#3DB8FF" transform="translate(223,93)"/>
</svg>
